<?xml version="1.0" standalone="no"?>
<!DOCTYPE svg PUBLIC "-//W3C//DTD SVG 20010904//EN"
 "http://www.w3.org/TR/2001/REC-SVG-20010904/DTD/svg10.dtd">
<svg version="1.0" xmlns="http://www.w3.org/2000/svg"
 width="120.000000pt" height="120.000000pt" viewBox="0 0 120.000000 120.000000"
 preserveAspectRatio="xMidYMid meet">
<metadata>
Created by potrace 1.11, written by Peter Selinger 2001-2013
</metadata>
<g transform="translate(0.000000,120.000000) scale(0.100000,-0.100000)"
fill="#000000" stroke="none">
<path d="M556 1119 c-8 -9 -29 -46 -48 -80 -18 -35 -36 -66 -39 -69 -8 -6 -62
-99 -85 -145 -8 -16 -24 -43 -34 -60 -11 -16 -27 -43 -35 -60 -9 -16 -24 -43
-34 -60 -10 -16 -28 -48 -41 -70 -12 -22 -65 -114 -118 -205 -123 -213 -121
-208 -115 -231 13 -48 13 -48 595 -48 l548 0 23 22 c13 12 23 30 21 39 -4 27
-28 78 -36 78 -5 0 -8 4 -8 9 0 5 -19 42 -43 83 -24 40 -55 93 -69 118 -35 62
-51 90 -163 285 -54 94 -106 184 -114 200 -9 17 -19 31 -23 33 -5 2 -8 9 -8
17 0 7 -7 18 -15 25 -9 7 -13 15 -11 18 3 2 -13 31 -35 63 -35 51 -44 59 -69
57 -16 -1 -36 -10 -44 -19z"/>
</g>
</svg>
